Coordinates
version=1
nRows=32
nColumns=22
inDegrees=yes

Units are S.I. units (second, meters, Newtons, ...)
If the header above contains a line with 'inDegrees', this indicates whether rotational values are in degrees (yes) or radians (no).

endheader
time	pelvis_tilt	pelvis_list	pelvis_rotation	pelvis_tx	pelvis_ty	pelvis_tz	hip_flexion_r	hip_adduction_r	hip_rotation_r	knee_angle_r	ankle_angle_r	subtalar_angle_r	hip_flexion_l	hip_adduction_l	hip_rotation_l	knee_angle_l	ankle_angle_l	subtalar_angle_l	lumbar_extension	lumbar_bending	lumbar_rotation
      1.23000000	    -10.83266869	      3.37442316	    -34.95555492	     -1.71361770	      0.87580345	     -0.45025263	     12.94497960	     -0.83368913	     -1.07733152	    -13.95143358	     16.17930751	      3.19634708	     11.14759966	     -8.65819681	     -5.74240631	    -18.30542799	     20.37502173	      7.70220651	      3.85930617	      1.47523445	     11.74011895
      1.24000000	    -10.86990900	      3.35129334	    -34.95355737	     -1.71355324	      0.87570881	     -0.45030472	     12.90523121	     -0.79288026	     -1.06270577	    -13.85291630	     16.16759735	      3.15637809	     11.18630713	     -8.66990352	     -5.63164955	    -18.35163903	     20.45905134	      7.48302747	      3.89484380	      1.50323031	     11.74382110
      1.25000000	    -10.91001665	      3.33271009	    -34.96047837	     -1.71344231	      0.87558919	     -0.45033871	     12.85475107	     -0.75285557	     -1.01489828	    -13.73155907	     16.17732998	      3.13473168	     11.22239611	     -8.67326589	     -5.50124502	    -18.39257634	     20.57319629	      7.35934504	      3.93770750	      1.53069617	     11.74851870
      1.26000000	    -10.98332399	      3.26428244	    -34.94180545	     -1.71327223	      0.87546157	     -0.45039342	     12.77958988	     -0.65491165	     -1.03881226	    -13.57334992	     16.11260405	      3.05963040	     11.29823507	     -8.73302022	     -5.32565239	    -18.50310622	     20.69798596	      6.98980533	      3.97963562	      1.62471143	     11.75159066
      1.27000000	    -11.04971732	      3.21775364	    -34.94219876	     -1.71305538	      0.87530655	     -0.45041655	     12.70193499	     -0.57563200	     -1.01169603	    -13.40283722	     16.08985106	      2.98070248	     11.36581949	     -8.76234269	     -5.13122750	    -18.60026752	     20.85780452	      6.62458061	      4.03061273	      1.69612162	     11.76294094
      1.28000000	    -11.12236507	      3.16545454	    -34.95097538	     -1.71279284	      0.87513568	     -0.45041846	     12.61736769	     -0.48552054	     -0.97593593	    -13.22066007	     16.06755521	      2.90174492	     11.44133460	     -8.79758417	     -4.92600544	    -18.71990614	     21.04138898	      6.25269590	      4.08295510	      1.77768028	     11.78526221
      1.29000000	    -11.19988870	      3.11308349	    -34.96999777	     -1.71247657	      0.87494799	     -0.45040107	     12.53051127	     -0.39092457	     -0.92247111	    -13.03379460	     16.04872494	      2.81896342	     11.52546062	     -8.83333682	     -4.71748940	    -18.86153314	     21.25168335	      5.85409791	      4.14015192	      1.86469913	     11.81995131
      1.30000000	    -11.28208279	      3.06329418	    -35.00291975	     -1.71211809	      0.87474719	     -0.45037139	     12.44939955	     -0.29398293	     -0.85150442	    -12.85149100	     16.03353021	      2.72777701	     11.61839971	     -8.86792616	     -4.51070452	    -19.02393508	     21.48160546	      5.40025505	      4.20072164	      1.95479505	     11.87000215
      1.31000000	    -11.36500272	      3.02184752	    -35.05384698	     -1.71171581	      0.87453609	     -0.45032985	     12.37827760	     -0.20270985	     -0.75733236	    -12.68154442	     16.02802033	      2.64433010	     11.71243636	     -8.89512235	     -4.31844767	    -19.19637156	     21.72685753	      4.93924942	      4.26359441	      2.04046686	     11.93818441
      1.32000000	    -11.45427558	      2.98405310	    -35.12205403	     -1.71127990	      0.87431241	     -0.45026935	     12.32043194	     -0.11003022	     -0.64733607	    -12.52687883	     16.02379096	      2.56886674	     11.81041446	     -8.92549854	     -4.14328140	    -19.38000799	     21.98604306	      4.43899539	      4.32959966	      2.12599095	     12.02488711
      1.33000000	    -11.53048240	      2.97413926	    -35.20011944	     -1.71079826	      0.87409242	     -0.45025311	     12.29193120	     -0.05460769	     -0.52034393	    -12.41918706	     16.04678670	      2.49101334	     11.89526756	     -8.91286279	     -3.94670282	    -19.53944052	     22.21206417	      3.82302433	      4.39230879	      2.18153031	     12.11797872
      1.34000000	    -11.62830259	      2.93251057	    -35.30939055	     -1.71027675	      0.87386093	     -0.45017532	     12.25769865	      0.04398424	     -0.38597395	    -12.30492590	     16.04536944	      2.47669960	     11.98604428	     -8.96126852	     -3.84803197	    -19.73877939	     22.49768227	      3.40188644	      4.45136236	      2.28198590	     12.25634026
      1.35000000	    -11.71043168	      2.93297771	    -35.41381451	     -1.70970109	      0.87362562	     -0.45016641	     12.26489466	      0.08755996	     -0.24044307	    -12.24833596	     16.07254145	      2.46223581	     12.06502938	     -8.94427087	     -3.68449765	    -19.89584089	     22.72465488	      2.73352391	      4.51394543	      2.33371956	     12.38113868
      1.36000000	    -11.79306253	      2.91889470	    -35.54182714	     -1.70905108	      0.87339324	     -0.45012494	     12.26374615	      0.14245373	     -0.08783871	    -12.19649751	     16.09704117	      2.49305538	     12.12746785	     -8.94999757	     -3.58622360	    -20.06130969	     22.97300538	      2.17152288	      4.56408455	      2.40314136	     12.54230850
      1.37000000	    -11.86510040	      2.90824219	    -35.68320805	     -1.70830621	      0.87316742	     -0.45008560	     12.26294459	      0.18227365	      0.06922314	    -12.16519150	     16.13729825	      2.55369724	     12.16508644	     -8.94458491	     -3.50908618	    -20.21129823	     23.21745772	      1.59979680	      4.60195846	      2.46730338	     12.71825927
      1.38000000	    -11.92170670	      2.90183124	    -35.83505864	     -1.70744713	      0.87295156	     -0.45003624	     12.25158903	      0.20350050	      0.23111954	    -12.14374108	     16.19093865	      2.64349270	     12.16912577	     -8.92257982	     -3.44566576	    -20.33690384	     23.45492761	      1.02760245	      4.62527012	      2.52165663	     12.90512206
      1.39000000	    -11.96341861	      2.89886408	    -35.99578191	     -1.70646423	      0.87274939	     -0.44997683	     12.22624228	      0.20728932	      0.39530382	    -12.12715844	     16.25390093	      2.75747179	     12.13951601	     -8.88458679	     -3.39814074	    -20.43577413	     23.68214897	      0.46919748	      4.63532746	      2.56689987	     13.10019860
      1.40000000	    -11.99323448	      2.90258480	    -36.15819520	     -1.70534932	      0.87255165	     -0.44990915	     12.18885195	      0.19123521	      0.54840365	    -12.10983103	     16.32888036	      2.88993694	     12.08192220	     -8.82863749	     -3.36048090	    -20.50814781	     23.90264715	     -0.07903665	      4.63810591	      2.60006975	     13.29681689
      1.41000000	    -12.01798209	      2.91513936	    -36.31487543	     -1.70410699	      0.87234802	     -0.44984984	     12.14713784	      0.15709415	      0.68849864	    -12.09455957	     16.41055490	      3.03304134	     12.00869846	     -8.75485746	     -3.31914268	    -20.55569107	     24.11436267	     -0.61005891	      4.64115156	      2.62304115	     13.48415814
      1.42000000	    -12.04664710	      2.92613887	    -36.47621977	     -1.70276943	      0.87211932	     -0.44978583	     12.11183870	      0.12395972	      0.82622936	    -12.09657049	     16.51007621	      3.14650907	     11.93530286	     -8.68903865	     -3.32359372	    -20.60913199	     24.34090779	     -1.00634970	      4.64283066	      2.65177503	     13.67964391
      1.43000000	    -12.08448723	      2.96383089	    -36.59841538	     -1.70126764	      0.87186349	     -0.44978057	     12.08539042	      0.05851455	      0.94077243	    -12.08695504	     16.59374432	      3.30580870	     11.85168061	     -8.57958034	     -3.22272319	    -20.58785994	     24.52724499	     -1.54026733	      4.67482667	      2.66123519	     13.82690549
      1.44000000	    -12.13377945	      3.00265021	    -36.71127605	     -1.69966043	      0.87156435	     -0.44977734	     12.06611642	     -0.00504004	      1.04444173	    -12.08503589	     16.69023269	      3.42965592	     11.77811407	     -8.47807770	     -3.15044959	    -20.57264176	     24.73329666	     -1.92733145	      4.71712391	      2.67567743	     13.96552342
      1.45000000	    -12.18504520	      3.04469098	    -36.80889957	     -1.69793667	      0.87123416	     -0.44977372	     12.04566750	     -0.07595508	      1.13111473	    -12.09068631	     16.80535099	      3.52657621	     11.70311539	     -8.37261433	     -3.08586353	    -20.55546227	     24.94682921	     -2.22159456	      4.76362799	      2.68380755	     14.09556665
      1.46000000	    -12.25620509	      3.09602552	    -36.87534740	     -1.69604616	      0.87087573	     -0.44980512	     12.02436396	     -0.15452919	      1.20520869	    -12.07253092	     16.90014630	      3.64362256	     11.61997959	     -8.25503963	     -2.96828401	    -20.47892436	     25.13441533	     -2.54203473	      4.83922305	      2.70026355	     14.18278430
      1.47000000	    -12.32650870	      3.15046685	    -36.92754233	     -1.69403988	      0.87049963	     -0.44983003	     11.99257465	     -0.24244801	      1.26272676	    -12.04774126	     17.00996150	      3.73515484	     11.54209875	     -8.13512323	     -2.86987294	    -20.42225358	     25.32364344	     -2.75533259	      4.91478904	      2.70738370	     14.27067410
      1.48000000	    -12.41668223	      3.19504933	    -36.95566953	     -1.69189278	      0.87010673	     -0.44985112	     11.94402735	     -0.31539383	      1.31807301	    -11.99121418	     17.09311685	      3.77034490	     11.47338630	     -8.03294827	     -2.75769972	    -20.37084124	     25.50787322	     -2.81366433	      5.00524971	      2.73454897	     14.32351871
      1.49000000	    -12.49037343	      3.25920634	    -36.95754265	     -1.68958105	      0.86970543	     -0.44992564	     11.88852941	     -0.43432532	      1.31360776	    -11.94115041	     17.21154687	      3.93019115	     11.40233797	     -7.89184279	     -2.64180962	    -20.32227361	     25.66199291	     -3.07676050	      5.08986534	      2.73200120	     14.38252562
      1.50000000	    -12.59827954	      3.30286302	    -36.95116056	     -1.68716287	      0.86926992	     -0.44996015	     11.81968716	     -0.51267805	      1.34059449	    -11.85225180	     17.29223922	      3.97026257	     11.34690189	     -7.79811775	     -2.55358630	    -20.28307694	     25.83834835	     -3.11228341	      5.19080789	      2.76959877	     14.41473771
      1.51000000	    -12.70005089	      3.34701174	    -36.89447059	     -1.68456289	      0.86881719	     -0.45006639	     11.73612920	     -0.61870423	      1.26022422	    -11.76754497	     17.39339557	      4.13861936	     11.29759381	     -7.68295649	     -2.41519215	    -20.25642411	     25.99929216	     -3.26864529	      5.28394790	      2.79721302	     14.41687567
      1.52000000	    -12.81815767	      3.39257412	    -36.85251513	     -1.68188552	      0.86832605	     -0.45012904	     11.65494980	     -0.70962047	      1.26075007	    -11.67070195	     17.48312675	      4.19294756	     11.24671731	     -7.58567863	     -2.33963596	    -20.21384919	     26.18679689	     -3.29903295	      5.38540431	      2.83579385	     14.43180754
      1.53000000	    -12.93882663	      3.42565679	    -36.75064918	     -1.67900429	      0.86781359	     -0.45024745	     11.55445217	     -0.81218085	      1.13045638	    -11.57808155	     17.58442093	      4.39742417	     11.19286009	     -7.48278943	     -2.19965816	    -20.16654012	     26.35017850	     -3.42110838	      5.48333067	      2.88049585	     14.39121884
      1.54000000	    -13.06114307	      3.46930875	    -36.67665511	     -1.67607288	      0.86726513	     -0.45030892	     11.45948171	     -0.91264836	      1.10296790	    -11.48775894	     17.68423962	      4.45070785	     11.13377302	     -7.38160648	     -2.12310931	    -20.11622508	     26.54853158	     -3.43774619	      5.57962458	      2.91570387	     14.39902219
